<?xml version="1.0" encoding="UTF-8" standalone="no"?>
<!-- Created with Inkscape (http://www.inkscape.org/) -->

<svg
   version="1.1"
   id="svg2"
   width="512"
   height="512"
   viewBox="0 0 512 512"
   xmlns="http://www.w3.org/2000/svg"
   xmlns:svg="http://www.w3.org/2000/svg">
  <defs
     id="defs6" />
  <g
     id="g8">
    <path
       style="fill:#000000;stroke-width:2.82585"
       d="M 104.93853,477.57742 C 85.268307,472.49265 73.798695,465.96691 59.581272,451.77094 44.688915,436.90109 37.394656,423.10537 32.881972,401.27431 23.668717,356.70319 49.733603,307.77629 90.880246,292.4046 c 16.159704,-6.03698 49.407954,-11.14069 49.407954,-7.58429 0,5.42481 -32.57939,44.02905 -43.854576,51.96454 -23.300261,16.39874 -30.639857,46.47034 -17.436752,71.44139 19.885799,37.61001 71.474698,41.29795 95.793988,6.84804 7.96317,-11.28038 46.624,-43.818 52.06405,-43.818 3.56179,0 -1.54965,33.19806 -7.59576,49.33335 -15.89067,42.4075 -68.76373,68.76423 -114.32062,56.98779 z m 253.75458,-0.57457 c -8.19667,-2.2034 -18.9261,-6.08348 -23.84325,-8.62238 -15.39552,-7.94932 -35.2819,-30.82651 -41.71119,-47.98435 -5.98905,-15.98302 -11.06532,-49.13984 -7.52325,-49.13984 4.8771,0 44.71176,32.71831 49.75537,40.86672 15.10259,24.39957 48.75659,33.80137 73.57499,20.55442 18.27743,-9.75564 29.03513,-26.25093 30.52403,-46.80388 1.53569,-21.1981 -5.97646,-36.80271 -23.73318,-49.29988 -10.59724,-7.45836 -43.55452,-46.3152 -43.55452,-51.35108 0,-5.33655 41.14543,2.05512 57.53575,10.33616 16.09253,8.13054 35.23422,28.66285 43.72885,46.90564 6.25035,13.42309 7.48997,20.0575 7.48997,40.08671 0,20.0292 -1.23962,26.66361 -7.48997,40.0867 -13.44232,28.86825 -38.69305,49.03258 -69.58908,55.57131 -18.88668,3.99713 -26.57155,3.79189 -45.16452,-1.20625 z M 114.51986,406.69313 c -19.290828,-10.83299 -16.129571,-41.63872 5.10516,-49.74865 3.41141,-1.30289 16.45544,-15.96641 28.98672,-32.58563 22.78418,-30.21676 22.78418,-30.21676 22.78418,-68.87441 0,-38.65767 0,-38.65767 -22.78418,-68.87442 -12.53128,-16.61921 -25.57531,-31.28274 -28.98672,-32.58563 -21.838056,-8.34035 -24.360559,-39.50232 -4.04671,-49.99116 14.62461,-7.551263 34.05206,0.3971 39.59175,16.19821 0.87162,2.48618 15.31035,14.87518 32.08609,27.5311 30.50129,23.01079 30.50129,23.01079 69.09821,23.01079 38.59692,0 38.59692,0 68.85939,-22.74977 16.64436,-12.51236 31.33007,-25.5367 32.63492,-28.94296 8.35296,-21.805069 39.56208,-24.323768 50.06677,-4.04059 7.61633,14.70611 -0.39155,33.97927 -16.46365,39.62427 -2.62246,0.92108 -15.03019,15.28446 -27.57275,31.91859 -22.80466,30.2439 -22.80466,30.2439 -22.80466,68.90157 0,38.65765 0,38.65765 22.80466,68.90155 12.54256,16.63412 24.95029,30.99751 27.57275,31.91861 16.0721,5.645 24.07998,24.91813 16.46365,39.62423 -10.50469,20.28321 -41.71381,17.76449 -50.06677,-4.04057 -1.30485,-3.40627 -15.99056,-16.43059 -32.63492,-28.94297 -30.26247,-22.74976 -30.26247,-22.74976 -68.97859,-22.74976 -38.71614,0 -38.71614,0 -68.97856,22.74976 -16.64435,12.51238 -31.33009,25.5367 -32.63491,28.94297 -5.81155,15.17077 -26.10737,22.66361 -40.10183,14.80487 z M 295.26122,294.45154 c 4.70186,-4.69477 4.70186,-73.23945 0,-77.93422 -4.70188,-4.69478 -73.35019,-4.69478 -78.05211,0 -4.70186,4.69477 -4.70186,73.23945 0,77.93422 4.70192,4.69478 73.35023,4.69478 78.05211,0 z M 104.08279,222.84586 C 78.007189,215.83841 60.838537,203.65543 47.256433,182.52153 14.797863,132.01563 32.603425,66.498211 85.908933,40.295629 c 16.910757,-8.312566 21.465367,-9.29563 43.067377,-9.29563 21.60202,0 26.15662,0.983064 43.06739,9.29563 31.87132,15.666514 51.04399,43.917923 54.79195,80.737301 2.26029,22.20481 4.36939,22.12481 -24.97014,0.94717 -10.28425,-7.42331 -21.1996,-17.7293 -24.2563,-22.902195 -22.67187,-38.367893 -81.444679,-35.295245 -99.87675,5.221575 -11.349914,24.94903 -3.260679,54.42778 19.290823,70.29954 10.382407,7.30714 43.264917,46.18045 43.264917,51.14726 0,2.82901 -21.20737,1.13011 -36.20541,-2.90042 z m 268.09932,2.90042 c 0,-5.03587 32.95728,-43.89272 43.55452,-51.35107 15.48103,-10.89555 24.31688,-27.08111 24.31688,-44.54379 0,-33.407088 -24.20033,-57.907719 -57.19794,-57.907719 -19.4372,0 -31.72254,6.654283 -46.02312,24.928158 -9.55399,12.208461 -45.86184,42.840731 -50.77834,42.840731 -5.37641,0 1.98895,-41.017265 10.31598,-57.448856 8.14284,-16.068207 28.70621,-35.180987 46.97659,-43.662796 13.44339,-6.240941 20.08784,-7.47867 40.14733,-7.47867 19.97928,0 26.72116,1.245993 39.93102,7.379792 22.30703,10.357915 37.66916,25.302174 48.41583,47.098722 8.24516,16.723088 9.2118,21.236668 9.15705,42.757618 -0.0509,20.01209 -1.32161,26.76755 -7.5512,40.14608 -8.49463,18.2428 -27.63632,38.77509 -43.72885,46.90566 -16.39032,8.28103 -57.53575,15.67269 -57.53575,10.33614 z"
       id="path70" />
  </g>
</svg>
